<?xml version="1.0" encoding="UTF-8" standalone="no"?><svg xmlns="http://www.w3.org/2000/svg" xmlns:xlink="http://www.w3.org/1999/xlink" contentScriptType="application/ecmascript" contentStyleType="text/css" height="558px" preserveAspectRatio="none" style="width:239px;height:558px;" version="1.1" viewBox="0 0 239 558" width="239px" zoomAndPan="magnify"><defs><filter height="300%" id="fg5l4d2svcc85" width="300%" x="-1" y="-1"><feGaussianBlur result="blurOut" stdDeviation="2.0"/><feColorMatrix in="blurOut" result="blurOut2" type="matrix" values="0 0 0 0 0 0 0 0 0 0 0 0 0 0 0 0 0 0 .4 0"/><feOffset dx="4.0" dy="4.0" in="blurOut2" result="blurOut3"/><feBlend in="SourceGraphic" in2="blurOut3" mode="normal"/></filter></defs><g><text fill="#000000" font-family="Fira Code" font-size="18" lengthAdjust="spacing" textLength="176" x="30.5" y="26.6155">Writing Markdown</text><ellipse cx="116.5" cy="42.154" fill="#000000" filter="url(#fg5l4d2svcc85)" rx="10" ry="10" style="stroke:none;stroke-width:1.0;"/><rect fill="#8AE6AE" filter="url(#fg5l4d2svcc85)" height="34.7692" rx="12.5" ry="12.5" style="stroke:#74A82A;stroke-width:1.5;" width="167" x="33" y="72.154"/><text fill="#000000" font-family="Fira Code" font-size="12" lengthAdjust="spacing" textLength="147" x="43" y="93.2309">Read about the format</text><rect fill="#8AE6AE" filter="url(#fg5l4d2svcc85)" height="34.7692" rx="12.5" ry="12.5" style="stroke:#74A82A;stroke-width:1.5;" width="146" x="43.5" y="126.9232"/><text fill="#000000" font-family="Fira Code" font-size="12" lengthAdjust="spacing" textLength="126" x="53.5" y="148.0001">Install the editor</text><rect fill="#8AE6AE" filter="url(#fg5l4d2svcc85)" height="34.7692" rx="12.5" ry="12.5" style="stroke:#74A82A;stroke-width:1.5;" width="139" x="47" y="181.6924"/><text fill="#000000" font-family="Fira Code" font-size="12" lengthAdjust="spacing" textLength="119" x="57" y="202.7693">Try some examples</text><rect fill="#8AE6AE" filter="url(#fg5l4d2svcc85)" height="34.7692" rx="12.5" ry="12.5" style="stroke:#74A82A;stroke-width:1.5;" width="111" x="61" y="236.4616"/><text fill="#000000" font-family="Fira Code" font-size="12" lengthAdjust="spacing" textLength="91" x="71" y="257.5384">Start writing</text><rect fill="#8AE6AE" filter="url(#fg5l4d2svcc85)" height="34.7692" rx="12.5" ry="12.5" style="stroke:#74A82A;stroke-width:1.5;" width="202" x="15.5" y="291.2307"/><text fill="#000000" font-family="Fira Code" font-size="12" lengthAdjust="spacing" textLength="182" x="25.5" y="312.3076">Check the published output</text><rect fill="#8AE6AE" filter="url(#fg5l4d2svcc85)" height="34.7692" rx="12.5" ry="12.5" style="stroke:#74A82A;stroke-width:1.5;" width="104" x="64.5" y="345.9999"/><text fill="#000000" font-family="Fira Code" font-size="12" lengthAdjust="spacing" textLength="84" x="74.5" y="367.0768">Use it daily</text><polygon fill="#FEFECE" filter="url(#fg5l4d2svcc85)" points="67.5,400.7691,165.5,400.7691,177.5,412.7691,165.5,424.7691,67.5,424.7691,55.5,412.7691,67.5,400.7691" style="stroke:#A80036;stroke-width:1.5;"/><text fill="#000000" font-family="Fira Code" font-size="11" lengthAdjust="spacing" textLength="98" x="67.5" y="416.1537">Do you like it</text><text fill="#000000" font-family="Fira Code" font-size="11" lengthAdjust="spacing" textLength="21" x="34.5" y="409.3845">yes</text><text fill="#000000" font-family="Fira Code" font-size="11" lengthAdjust="spacing" textLength="14" x="177.5" y="409.3845">no</text><rect fill="#8AE6AE" filter="url(#fg5l4d2svcc85)" height="34.7692" rx="12.5" ry="12.5" style="stroke:#74A82A;stroke-width:1.5;" width="69" x="11" y="434.7691"/><text fill="#000000" font-family="Fira Code" font-size="12" lengthAdjust="spacing" textLength="49" x="21" y="455.846">Perfect</text><rect fill="#8AE6AE" filter="url(#fg5l4d2svcc85)" height="34.7692" rx="12.5" ry="12.5" style="stroke:#74A82A;stroke-width:1.5;" width="69" x="153" y="434.7691"/><text fill="#000000" font-family="Fira Code" font-size="12" lengthAdjust="spacing" textLength="49" x="163" y="455.846">Me sad.</text><polygon fill="#FEFECE" filter="url(#fg5l4d2svcc85)" points="116.5,475.5383,128.5,487.5383,116.5,499.5383,104.5,487.5383,116.5,475.5383" style="stroke:#A80036;stroke-width:1.5;"/><ellipse cx="116.5" cy="530.5383" fill="#FFFFFF" filter="url(#fg5l4d2svcc85)" rx="11" ry="11" style="stroke:#000000;stroke-width:1.0;"/><ellipse cx="116.5" cy="530.5383" fill="#000000" rx="6" ry="6" style="stroke:#7F7F7F;stroke-width:1.0;"/><line style="stroke:#3565A1;stroke-width:1.5;" x1="116.5" x2="116.5" y1="52.154" y2="72.154"/><polygon fill="#3565A1" points="112.5,62.154,116.5,72.154,120.5,62.154,116.5,66.154" style="stroke:#3565A1;stroke-width:1.0;"/><line style="stroke:#3565A1;stroke-width:1.5;" x1="116.5" x2="116.5" y1="106.9232" y2="126.9232"/><polygon fill="#3565A1" points="112.5,116.9232,116.5,126.9232,120.5,116.9232,116.5,120.9232" style="stroke:#3565A1;stroke-width:1.0;"/><line style="stroke:#3565A1;stroke-width:1.5;" x1="116.5" x2="116.5" y1="161.6924" y2="181.6924"/><polygon fill="#3565A1" points="112.5,171.6924,116.5,181.6924,120.5,171.6924,116.5,175.6924" style="stroke:#3565A1;stroke-width:1.0;"/><line style="stroke:#3565A1;stroke-width:1.5;" x1="116.5" x2="116.5" y1="216.4616" y2="236.4616"/><polygon fill="#3565A1" points="112.5,226.4616,116.5,236.4616,120.5,226.4616,116.5,230.4616" style="stroke:#3565A1;stroke-width:1.0;"/><line style="stroke:#3565A1;stroke-width:1.5;" x1="116.5" x2="116.5" y1="271.2307" y2="291.2307"/><polygon fill="#3565A1" points="112.5,281.2307,116.5,291.2307,120.5,281.2307,116.5,285.2307" style="stroke:#3565A1;stroke-width:1.0;"/><line style="stroke:#3565A1;stroke-width:1.5;" x1="116.5" x2="116.5" y1="325.9999" y2="345.9999"/><polygon fill="#3565A1" points="112.5,335.9999,116.5,345.9999,120.5,335.9999,116.5,339.9999" style="stroke:#3565A1;stroke-width:1.0;"/><line style="stroke:#3565A1;stroke-width:1.5;" x1="55.5" x2="45.5" y1="412.7691" y2="412.7691"/><line style="stroke:#3565A1;stroke-width:1.5;" x1="45.5" x2="45.5" y1="412.7691" y2="434.7691"/><polygon fill="#3565A1" points="41.5,424.7691,45.5,434.7691,49.5,424.7691,45.5,428.7691" style="stroke:#3565A1;stroke-width:1.0;"/><line style="stroke:#3565A1;stroke-width:1.5;" x1="177.5" x2="187.5" y1="412.7691" y2="412.7691"/><line style="stroke:#3565A1;stroke-width:1.5;" x1="187.5" x2="187.5" y1="412.7691" y2="434.7691"/><polygon fill="#3565A1" points="183.5,424.7691,187.5,434.7691,191.5,424.7691,187.5,428.7691" style="stroke:#3565A1;stroke-width:1.0;"/><line style="stroke:#3565A1;stroke-width:1.5;" x1="45.5" x2="45.5" y1="469.5383" y2="487.5383"/><line style="stroke:#3565A1;stroke-width:1.5;" x1="45.5" x2="104.5" y1="487.5383" y2="487.5383"/><polygon fill="#3565A1" points="94.5,483.5383,104.5,487.5383,94.5,491.5383,98.5,487.5383" style="stroke:#3565A1;stroke-width:1.0;"/><line style="stroke:#3565A1;stroke-width:1.5;" x1="187.5" x2="187.5" y1="469.5383" y2="487.5383"/><line style="stroke:#3565A1;stroke-width:1.5;" x1="187.5" x2="128.5" y1="487.5383" y2="487.5383"/><polygon fill="#3565A1" points="138.5,483.5383,128.5,487.5383,138.5,491.5383,134.5,487.5383" style="stroke:#3565A1;stroke-width:1.0;"/><line style="stroke:#3565A1;stroke-width:1.5;" x1="116.5" x2="116.5" y1="380.7691" y2="400.7691"/><polygon fill="#3565A1" points="112.5,390.7691,116.5,400.7691,120.5,390.7691,116.5,394.7691" style="stroke:#3565A1;stroke-width:1.0;"/><line style="stroke:#3565A1;stroke-width:1.5;" x1="116.5" x2="116.5" y1="499.5383" y2="519.5383"/><polygon fill="#3565A1" points="112.5,509.5383,116.5,519.5383,120.5,509.5383,116.5,513.5383" style="stroke:#3565A1;stroke-width:1.0;"/><!--MD5=[b939c6eae5ec95808dfd8be9d5e33d9e]
@startuml demo-graph2

title Writing Markdown

skinparam ActivityBackgroundColor #8ae6ae
skinparam ActivityBorderColor #74a82a
skinparam ArrowColor #3565a1
skinparam DefaultFontName Fira Code

start

:Read about the format;
:Install the editor;
:Try some examples;
:Start writing;
:Check the published output;
:Use it daily;

if (Do you like it) then (yes)
    :Perfect;
else (no)
    :Me sad.;
endif

stop

@enduml

PlantUML version 1.2021.01(Tue Feb 02 08:55:08 CET 2021)
(GPL source distribution)
Java Runtime: OpenJDK Runtime Environment
JVM: OpenJDK 64-Bit Server VM
Default Encoding: Cp1252
Language: de
Country: DE
--></g></svg>